<mxfile host="app.diagrams.net" modified="2024-05-12T14:41:14.535Z" agent="Mozilla/5.0 (Windows NT 10.0; Win64; x64) AppleWebKit/537.36 (KHTML, like Gecko) Chrome/124.0.0.0 Safari/537.36" etag="Wvm83YRtYQSRafT1rGeV" version="24.4.0" type="device">
  <diagram name="Страница — 1" id="aVDJ9qmUBuLJ7nvzS5wr">
    <mxGraphModel dx="1434" dy="780" grid="1" gridSize="10" guides="1" tooltips="1" connect="1" arrows="1" fold="1" page="1" pageScale="1" pageWidth="827" pageHeight="1169" math="0" shadow="0">
      <root>
        <mxCell id="0" />
        <mxCell id="1" parent="0" />
        <mxCell id="MI6tsqW-qr_hS-txNEMY-15" style="edgeStyle=orthogonalEdgeStyle;rounded=0;orthogonalLoop=1;jettySize=auto;html=1;exitX=0.5;exitY=1;exitDx=0;exitDy=0;entryX=0.5;entryY=0;entryDx=0;entryDy=0;strokeWidth=2;fontStyle=7;fontSize=18;fillColor=#fff2cc;strokeColor=#d6b656;" edge="1" parent="1" source="MI6tsqW-qr_hS-txNEMY-1" target="MI6tsqW-qr_hS-txNEMY-4">
          <mxGeometry relative="1" as="geometry" />
        </mxCell>
        <mxCell id="MI6tsqW-qr_hS-txNEMY-1" value="&lt;font style=&quot;vertical-align: inherit; font-size: 18px;&quot;&gt;&lt;font style=&quot;vertical-align: inherit; font-size: 18px;&quot;&gt;Начало программы&amp;nbsp;&lt;/font&gt;&lt;/font&gt;&lt;div style=&quot;font-size: 18px;&quot;&gt;&lt;font style=&quot;vertical-align: inherit; font-size: 18px;&quot;&gt;&lt;font style=&quot;vertical-align: inherit; font-size: 18px;&quot;&gt;&lt;br style=&quot;font-size: 18px;&quot;&gt;&lt;/font&gt;&lt;/font&gt;&lt;/div&gt;" style="rounded=1;whiteSpace=wrap;html=1;fillColor=#fff2cc;strokeColor=#d6b656;fillStyle=cross-hatch;strokeWidth=2;fontStyle=7;fontSize=18;" vertex="1" parent="1">
          <mxGeometry x="250" y="50" width="320" height="100" as="geometry" />
        </mxCell>
        <mxCell id="MI6tsqW-qr_hS-txNEMY-16" value="" style="edgeStyle=orthogonalEdgeStyle;rounded=0;orthogonalLoop=1;jettySize=auto;html=1;strokeWidth=2;fontStyle=7;fontSize=18;fillColor=#fff2cc;strokeColor=#d6b656;" edge="1" parent="1" source="MI6tsqW-qr_hS-txNEMY-4" target="MI6tsqW-qr_hS-txNEMY-5">
          <mxGeometry relative="1" as="geometry" />
        </mxCell>
        <mxCell id="MI6tsqW-qr_hS-txNEMY-4" value="&lt;font style=&quot;vertical-align: inherit; font-size: 18px;&quot;&gt;&lt;font style=&quot;vertical-align: inherit; font-size: 18px;&quot;&gt;Ввод массива&lt;/font&gt;&lt;/font&gt;" style="rounded=0;whiteSpace=wrap;html=1;fillColor=#fff2cc;strokeColor=#d6b656;fillStyle=cross-hatch;strokeWidth=2;fontStyle=7;fontSize=18;" vertex="1" parent="1">
          <mxGeometry x="250" y="190" width="320" height="100" as="geometry" />
        </mxCell>
        <mxCell id="MI6tsqW-qr_hS-txNEMY-17" value="" style="edgeStyle=orthogonalEdgeStyle;rounded=0;orthogonalLoop=1;jettySize=auto;html=1;strokeWidth=2;fontStyle=7;fontSize=18;fillColor=#fff2cc;strokeColor=#d6b656;" edge="1" parent="1" source="MI6tsqW-qr_hS-txNEMY-5" target="MI6tsqW-qr_hS-txNEMY-9">
          <mxGeometry relative="1" as="geometry" />
        </mxCell>
        <mxCell id="MI6tsqW-qr_hS-txNEMY-5" value="&lt;font style=&quot;vertical-align: inherit; font-size: 18px;&quot;&gt;&lt;font style=&quot;vertical-align: inherit; font-size: 18px;&quot;&gt;Инициализация нового массива&lt;/font&gt;&lt;/font&gt;" style="rounded=0;whiteSpace=wrap;html=1;fillColor=#fff2cc;strokeColor=#d6b656;fillStyle=cross-hatch;strokeWidth=2;fontStyle=7;fontSize=18;" vertex="1" parent="1">
          <mxGeometry x="250" y="330" width="320" height="100" as="geometry" />
        </mxCell>
        <mxCell id="MI6tsqW-qr_hS-txNEMY-18" value="" style="edgeStyle=orthogonalEdgeStyle;rounded=0;orthogonalLoop=1;jettySize=auto;html=1;strokeWidth=2;fontStyle=7;fontSize=18;fillColor=#fff2cc;strokeColor=#d6b656;" edge="1" parent="1" source="MI6tsqW-qr_hS-txNEMY-9" target="MI6tsqW-qr_hS-txNEMY-10">
          <mxGeometry relative="1" as="geometry" />
        </mxCell>
        <mxCell id="MI6tsqW-qr_hS-txNEMY-9" value="&lt;font style=&quot;vertical-align: inherit; font-size: 18px;&quot;&gt;&lt;font style=&quot;vertical-align: inherit; font-size: 18px;&quot;&gt;цикл перебора&amp;nbsp;&lt;/font&gt;&lt;/font&gt;" style="rounded=0;whiteSpace=wrap;html=1;fillColor=#fff2cc;strokeColor=#d6b656;fillStyle=cross-hatch;strokeWidth=2;fontStyle=7;fontSize=18;" vertex="1" parent="1">
          <mxGeometry x="250" y="470" width="320" height="100" as="geometry" />
        </mxCell>
        <mxCell id="MI6tsqW-qr_hS-txNEMY-19" value="" style="edgeStyle=orthogonalEdgeStyle;rounded=0;orthogonalLoop=1;jettySize=auto;html=1;strokeWidth=2;fontStyle=7;fontSize=18;fillColor=#fff2cc;strokeColor=#d6b656;" edge="1" parent="1" source="MI6tsqW-qr_hS-txNEMY-10" target="MI6tsqW-qr_hS-txNEMY-11">
          <mxGeometry relative="1" as="geometry" />
        </mxCell>
        <mxCell id="MI6tsqW-qr_hS-txNEMY-10" value="&lt;font style=&quot;vertical-align: inherit; font-size: 18px;&quot;&gt;&lt;font style=&quot;vertical-align: inherit; font-size: 18px;&quot;&gt;&lt;font style=&quot;vertical-align: inherit; font-size: 18px;&quot;&gt;&lt;font style=&quot;vertical-align: inherit; font-size: 18px;&quot;&gt;Создание нового массива&lt;/font&gt;&lt;/font&gt;&lt;/font&gt;&lt;/font&gt;" style="rounded=0;whiteSpace=wrap;html=1;fillColor=#fff2cc;strokeColor=#d6b656;fillStyle=cross-hatch;strokeWidth=2;fontStyle=7;fontSize=18;" vertex="1" parent="1">
          <mxGeometry x="250" y="600" width="320" height="100" as="geometry" />
        </mxCell>
        <mxCell id="MI6tsqW-qr_hS-txNEMY-20" value="" style="edgeStyle=orthogonalEdgeStyle;rounded=0;orthogonalLoop=1;jettySize=auto;html=1;strokeWidth=2;fontStyle=7;fontSize=18;fillColor=#fff2cc;strokeColor=#d6b656;" edge="1" parent="1" source="MI6tsqW-qr_hS-txNEMY-11" target="MI6tsqW-qr_hS-txNEMY-14">
          <mxGeometry relative="1" as="geometry" />
        </mxCell>
        <mxCell id="MI6tsqW-qr_hS-txNEMY-11" value="&lt;font style=&quot;vertical-align: inherit; font-size: 18px;&quot;&gt;&lt;font style=&quot;vertical-align: inherit; font-size: 18px;&quot;&gt;&lt;font style=&quot;vertical-align: inherit; font-size: 18px;&quot;&gt;&lt;font style=&quot;vertical-align: inherit; font-size: 18px;&quot;&gt;Вывод или возврат нового&lt;/font&gt;&lt;/font&gt;&lt;/font&gt;&lt;/font&gt;&lt;div style=&quot;font-size: 18px;&quot;&gt;&lt;font style=&quot;vertical-align: inherit; font-size: 18px;&quot;&gt;&lt;font style=&quot;vertical-align: inherit; font-size: 18px;&quot;&gt;&lt;font style=&quot;vertical-align: inherit; font-size: 18px;&quot;&gt;&lt;font style=&quot;vertical-align: inherit; font-size: 18px;&quot;&gt;&lt;font style=&quot;vertical-align: inherit; font-size: 18px;&quot;&gt;&lt;font style=&quot;vertical-align: inherit; font-size: 18px;&quot;&gt;массива&lt;/font&gt;&lt;/font&gt;&lt;/font&gt;&lt;/font&gt;&lt;/font&gt;&lt;/font&gt;&lt;/div&gt;" style="rounded=0;whiteSpace=wrap;html=1;fillColor=#fff2cc;strokeColor=#d6b656;fillStyle=cross-hatch;strokeWidth=2;fontStyle=7;fontSize=18;" vertex="1" parent="1">
          <mxGeometry x="250" y="740" width="320" height="100" as="geometry" />
        </mxCell>
        <mxCell id="MI6tsqW-qr_hS-txNEMY-14" value="&lt;font style=&quot;vertical-align: inherit; font-size: 18px;&quot;&gt;&lt;font style=&quot;vertical-align: inherit; font-size: 18px;&quot;&gt;&lt;font style=&quot;vertical-align: inherit; font-size: 18px;&quot;&gt;&lt;font style=&quot;vertical-align: inherit; font-size: 18px;&quot;&gt;Конецпрограммы&amp;nbsp;&lt;/font&gt;&lt;/font&gt;&lt;/font&gt;&lt;/font&gt;&lt;div style=&quot;font-size: 18px;&quot;&gt;&lt;font style=&quot;vertical-align: inherit; font-size: 18px;&quot;&gt;&lt;font style=&quot;vertical-align: inherit; font-size: 18px;&quot;&gt;&lt;br style=&quot;font-size: 18px;&quot;&gt;&lt;/font&gt;&lt;/font&gt;&lt;/div&gt;" style="rounded=1;whiteSpace=wrap;html=1;fillColor=#fff2cc;strokeColor=#d6b656;fillStyle=cross-hatch;strokeWidth=2;fontStyle=7;fontSize=18;" vertex="1" parent="1">
          <mxGeometry x="250" y="890" width="320" height="100" as="geometry" />
        </mxCell>
      </root>
    </mxGraphModel>
  </diagram>
</mxfile>
